<?xml version="1.0" encoding="utf-8"?>
<!-- Generator: Adobe Illustrator 16.0.0, SVG Export Plug-In . SVG Version: 6.00 Build 0)  -->
<!DOCTYPE svg PUBLIC "-//W3C//DTD SVG 1.1//EN" "http://www.w3.org/Graphics/SVG/1.1/DTD/svg11.dtd">
<svg version="1.1" id="レイヤー_1" xmlns="http://www.w3.org/2000/svg" xmlns:xlink="http://www.w3.org/1999/xlink" x="0px"
	 y="0px" width="595.279px" height="841.89px" viewBox="0 0 595.279 841.89" enable-background="new 0 0 595.279 841.89"
	 xml:space="preserve">
<path fill="none" stroke="#000000" stroke-miterlimit="10" d="M-144.525-6.734c-3.369-2.475-7.333-3.779-11.521-3.781
	c-10.889,0.005-19.764,9.049-19.783,20.161c0.02,11.111,8.895,20.156,19.783,20.162c4.188-0.004,8.152-1.307,11.521-3.781v3.775
	h8.629v-39.924h-8.629V-6.734z"/>
<path fill="none" stroke="#000000" stroke-miterlimit="10" d="M-144.525,15.858c0,4.873-3.562,10.314-11.521,10.314
	c-8.903,0-16.149-7.414-16.152-16.527c0.003-9.112,7.249-16.527,16.152-16.527c6.784,0,11.521,4.745,11.521,10.792V15.858z"/>
<path fill="none" stroke="#000000" stroke-miterlimit="10" d="M110.805-6.734c-3.368-2.475-7.333-3.779-11.521-3.781
	C88.395-10.511,79.52-1.467,79.501,9.645c0.021,11.111,8.896,20.156,19.783,20.162c4.188-0.004,8.153-1.307,11.521-3.781v3.775
	h8.631v-39.924h-8.631V-6.734z"/>
<path fill="none" stroke="#000000" stroke-miterlimit="10" d="M110.805,15.858c0,4.873-3.562,10.314-11.521,10.314
	c-8.903,0-16.148-7.414-16.149-16.527c0.001-9.112,7.246-16.527,16.149-16.527c6.785,0,11.521,4.745,11.521,10.792V15.858z"/>
<path fill="none" stroke="#000000" stroke-miterlimit="10" d="M156.059-10.522c-4.193-0.002-8.161,1.307-11.531,3.783v-23.485
	h-8.636v60.026h8.636V26.03c3.367,2.477,7.334,3.779,11.531,3.783c10.884-0.006,19.753-9.053,19.771-20.168
	C175.812-1.471,166.943-10.518,156.059-10.522z"/>
<path fill="none" stroke="#000000" stroke-miterlimit="10" d="M156.059,26.276c-7.923,0-11.531-5.648-11.531-10.416V3.907
	c0-6.118,4.85-11.083,11.531-11.083c8.896,0,16.137,7.545,16.139,16.824C172.196,18.817,164.955,26.276,156.059,26.276z"/>
<rect x="57.328" y="-30.224" fill="none" stroke="#000000" stroke-miterlimit="10" width="8.636" height="60.027"/>
<path fill="none" stroke="#000000" stroke-miterlimit="10" d="M5.451-11.509c-11.976,0-20.667,8.776-20.667,20.867
	c0,12.09,8.688,20.867,20.658,20.867h0.009c12.169-0.008,20.668-8.588,20.668-20.867C26.119-3.122,17.814-11.509,5.451-11.509z"/>
<path fill="none" stroke="#000000" stroke-miterlimit="10" d="M5.451,26.997c-5.726,0-10.636-3.389-10.636-7.473V-0.812
	c0-4.084,4.91-7.47,10.636-7.47c9.977,0,17.219,7.419,17.222,17.637C22.67,19.577,15.427,26.997,5.451,26.997z"/>
<path fill="none" stroke="#000000" stroke-miterlimit="10" d="M-98.335-10.6c-5.989,0-10.208,2.021-12.748,4.444l0.001-3.96h-8.354
	l-0.003,39.924h8.354c0,0,0.032-26.857,0.05-26.861c0.005-6.165,3.9-10.114,10.067-10.114c6.162,0,10.057,3.945,10.066,10.102
	c0.019,0.008,0.049,26.875,0.049,26.875l8.916-0.004l0.003-25.004C-81.933-6.328-90.924-10.6-98.335-10.6z"/>
<path fill="none" stroke="#000000" stroke-miterlimit="10" d="M-45.152-10.6c-5.99,0-10.208,2.021-12.749,4.444l0.001-3.96h-8.354
	l-0.003,39.924h8.354c0,0,0.034-26.857,0.051-26.861c0.005-6.165,3.901-10.114,10.067-10.114c6.163,0,10.057,3.945,10.066,10.102
	c0.019,0.008,0.049,26.875,0.049,26.875l8.916-0.004l0.004-25.004C-28.749-6.328-37.74-10.6-45.152-10.6z"/>
</svg>
