<?xml version="1.0" encoding="utf-8"?>
<!-- Generator: Adobe Illustrator 16.0.0, SVG Export Plug-In . SVG Version: 6.00 Build 0)  -->
<!DOCTYPE svg PUBLIC "-//W3C//DTD SVG 1.1//EN" "http://www.w3.org/Graphics/SVG/1.1/DTD/svg11.dtd">
<svg version="1.1" id="レイヤー_1" xmlns="http://www.w3.org/2000/svg" xmlns:xlink="http://www.w3.org/1999/xlink" x="0px"
	 y="0px" width="595.279px" height="841.89px" viewBox="0 0 595.279 841.89" enable-background="new 0 0 595.279 841.89"
	 xml:space="preserve">
<g>
	<path d="M-1.593-0.628c0.54,0.21,0.84,0.729,1.02,1.509C-0.353,1.791-0.154,2.71-0.004,3h-1.519c-0.11-0.22-0.3-0.89-0.48-1.819
		c-0.2-0.99-0.51-1.299-1.209-1.299h-0.5V3h-1.469v-7.586c0.51-0.09,1.229-0.16,1.979-0.16c0.969,0,2.928,0.12,2.928,2.179
		c0,0.939-0.6,1.629-1.319,1.909V-0.628z M-3.102-1.218c0.839,0,1.349-0.49,1.349-1.219c0-0.989-0.74-1.179-1.279-1.179
		c-0.33,0-0.56,0.02-0.68,0.06v2.339H-3.102z"/>
	<path d="M5.367,3H0.639V2.09l0.84-0.899c1.429-1.479,2.269-2.449,2.269-3.468c0-0.659-0.35-1.209-1.179-1.209
		c-0.55,0-1.06,0.29-1.409,0.55l-0.41-1.06c0.47-0.36,1.25-0.68,2.119-0.68c1.619,0,2.358,1.029,2.358,2.259
		c0,1.339-0.909,2.438-2.009,3.548L2.589,1.75v0.02h2.778V3z"/>
</g>
</svg>
