<?xml version="1.0" encoding="utf-8"?>
<!-- Generator: Adobe Illustrator 16.0.0, SVG Export Plug-In . SVG Version: 6.00 Build 0)  -->
<!DOCTYPE svg PUBLIC "-//W3C//DTD SVG 1.1//EN" "http://www.w3.org/Graphics/SVG/1.1/DTD/svg11.dtd">
<svg version="1.1" id="レイヤー_1" xmlns="http://www.w3.org/2000/svg" xmlns:xlink="http://www.w3.org/1999/xlink" x="0px"
	 y="0px" width="595.279px" height="841.89px" viewBox="0 0 595.279 841.89" enable-background="new 0 0 595.279 841.89"
	 xml:space="preserve">
<g>
	<path d="M-1.593-0.628c0.54,0.21,0.84,0.729,1.02,1.509C-0.353,1.791-0.154,2.71-0.004,3h-1.519c-0.11-0.22-0.3-0.89-0.48-1.819
		c-0.2-0.99-0.51-1.299-1.209-1.299h-0.5V3h-1.469v-7.586c0.51-0.09,1.229-0.16,1.979-0.16c0.969,0,2.928,0.12,2.928,2.179
		c0,0.939-0.6,1.629-1.319,1.909V-0.628z M-3.102-1.218c0.839,0,1.349-0.49,1.349-1.219c0-0.989-0.74-1.179-1.279-1.179
		c-0.33,0-0.56,0.02-0.68,0.06v2.339H-3.102z"/>
	<path d="M3.718-1.068c0.839,0.19,1.539,0.87,1.539,1.899c0,1.259-1.01,2.279-2.769,2.279c-0.8,0-1.519-0.21-1.899-0.459l0.33-1.12
		c0.28,0.18,0.89,0.41,1.469,0.41c0.91,0,1.359-0.56,1.359-1.179c0-0.85-0.74-1.25-1.549-1.25h-0.51v-1.039h0.48
		c0.59,0,1.349-0.33,1.349-1.06c0-0.53-0.35-0.919-1.049-0.919c-0.52,0-1.029,0.23-1.319,0.41l-0.31-1.06
		c0.39-0.26,1.159-0.52,1.969-0.52c1.449,0,2.208,0.85,2.208,1.849c0,0.779-0.47,1.429-1.299,1.739V-1.068z"/>
</g>
</svg>
