<?xml version="1.0" encoding="utf-8"?>
<!-- Generator: Adobe Illustrator 16.0.0, SVG Export Plug-In . SVG Version: 6.00 Build 0)  -->
<!DOCTYPE svg PUBLIC "-//W3C//DTD SVG 1.1//EN" "http://www.w3.org/Graphics/SVG/1.1/DTD/svg11.dtd">
<svg version="1.1" id="レイヤー_1" xmlns="http://www.w3.org/2000/svg" xmlns:xlink="http://www.w3.org/1999/xlink" x="0px"
	 y="0px" width="595.279px" height="841.89px" viewBox="0 0 595.279 841.89" enable-background="new 0 0 595.279 841.89"
	 xml:space="preserve">
<g>
	<path d="M-5.08-3.636c0.49-0.09,1.209-0.15,2.029-0.15c1,0,1.699,0.15,2.179,0.54c0.41,0.32,0.63,0.79,0.63,1.409
		c0,0.85-0.61,1.439-1.189,1.649v0.03c0.47,0.19,0.729,0.629,0.899,1.249c0.21,0.77,0.41,1.649,0.54,1.909h-1.56
		c-0.1-0.19-0.27-0.74-0.459-1.569c-0.19-0.849-0.48-1.069-1.109-1.079h-0.45V3H-5.08V-3.636z M-3.571-0.748h0.6
		c0.759,0,1.209-0.38,1.209-0.969c0-0.61-0.42-0.93-1.12-0.93c-0.37,0-0.58,0.02-0.689,0.05V-0.748z"/>
	<path d="M4.947-2.247H2.428l-0.14,0.989c0.14-0.01,0.26-0.02,0.42-0.02c0.62,0,1.259,0.14,1.709,0.47
		c0.49,0.33,0.79,0.87,0.79,1.639c0,1.209-1.039,2.279-2.788,2.279c-0.79,0-1.449-0.18-1.809-0.37l0.28-1.14
		c0.28,0.14,0.87,0.32,1.459,0.32c0.63,0,1.299-0.3,1.299-0.989c0-0.68-0.53-1.089-1.829-1.089c-0.359,0-0.609,0.02-0.869,0.06
		l0.419-3.398h3.578V-2.247z"/>
</g>
</svg>
